<?xml version="1.0" encoding="utf-8"?><svg fill="none" viewBox="0 0 1021 1024" xmlns="http://www.w3.org/2000/svg"><defs /><g transform="matrix(1.03,0,0,1.03,454.5,533)" id="Null 2"><g opacity="0.5" id="Gear"><g transform="translate(192.421,121.797)"><g transform="rotate(0)"><animateTransform repeatCount="indefinite" type="rotate" attributeName="transform" dur="1.401s" begin="0.501s" calcMode="spline" values="0; -31; 108.358; 90" keyTimes="0; 0.28; 0.786; 1" keySplines="0.333 0 0.667 1; 0.333 0 0.667 1; 0.333 0 0.667 1" fill="freeze" /><g transform="scale(3.81,3.81) translate(-1017.591,-388.602)"><g id="Group 1" transform="matrix(1,0,0,1,1017.589,388.6)"><path fill="#4700d3" fill-opacity="1" d="M11.8,0.026C11.82,-6.444,6.546,-11.753,0.054,-11.798C-6.427,-11.843,-11.778,-6.527,-11.798,-0.024C-11.818,6.446,-6.544,11.755,-0.052,11.8C6.429,11.844,11.78,6.529,11.8,0.026ZM11.599,90.418C3.712,90.413,-4.176,90.408,-12.063,90.403C-14.716,89.186,-15.738,86.931,-16.345,84.215C-17.638,78.431,-19.098,72.683,-20.584,66.945C-20.752,66.298,-21.413,65.567,-22.032,65.284C-25.068,63.897,-26.838,62.995,-29.949,61.786C-30.578,61.542,-32.604,61.692,-33.171,62.019C-37.646,64.602,-42.845,67.523,-47.28,70.174C-50.698,72.216,-52.84,71.964,-55.625,69.182C-60.038,64.772,-64.543,59.864,-68.949,55.447C-71.886,52.503,-72.118,50.463,-69.941,46.835C-67.342,42.506,-63.98,38.457,-61.333,34.157C-60.776,33.253,-60.79,32.573,-61.229,31.61C-62.565,28.68,-63.963,25.142,-65.124,22.137C-65.507,21.147,-66.022,20.669,-67.06,20.42C-73.226,18.948,-79.374,17.405,-85.525,15.872C-89.029,14.999,-90.409,13.226,-90.412,9.588C-90.418,3.115,-90.417,-3.359,-90.398,-9.833C-90.388,-13.323,-88.956,-15.123,-85.547,-15.97C-79.395,-17.497,-73.245,-19.031,-67.081,-20.509C-66.07,-20.751,-65.504,-21.175,-65.131,-22.199C-64.189,-24.785,-62.514,-28.221,-61.387,-30.733C-60.984,-31.632,-60.983,-32.285,-61.498,-33.131C-64.58,-38.197,-67.123,-42.34,-70.153,-47.439C-72.051,-50.632,-71.769,-52.869,-69.145,-55.501C-64.658,-60.002,-59.864,-64.559,-55.359,-69.043C-52.611,-71.778,-50.522,-72.028,-47.174,-70.025C-42.287,-67.1,-38.216,-64.357,-33.294,-61.491C-32.718,-61.156,-31.724,-61.123,-31.091,-61.372C-27.822,-62.66,-25.206,-63.803,-22.018,-65.278C-21.358,-65.583,-20.668,-66.374,-20.486,-67.071C-18.885,-73.203,-17.402,-79.367,-15.872,-85.518C-15.001,-89.02,-13.223,-90.409,-9.593,-90.412C-3.12,-90.418,3.354,-90.417,9.828,-90.399C13.321,-90.389,15.131,-88.959,15.975,-85.557C17.502,-79.405,19.029,-73.253,20.503,-67.088C20.744,-66.08,21.163,-65.513,22.18,-65.123C25.133,-63.992,28.051,-62.76,30.927,-61.444C31.922,-60.989,32.616,-61.112,33.504,-61.655C38.165,-64.499,42.565,-67.158,47.262,-69.944C50.414,-71.813,52.549,-71.539,55.157,-68.939C59.7,-64.41,64.166,-60.006,68.691,-55.46C71.367,-52.772,71.615,-50.699,69.657,-47.422C66.856,-42.734,64.201,-38.366,61.469,-33.639C61.113,-33.022,61.085,-31.968,61.346,-31.284C62.492,-28.274,63.907,-25.005,65.254,-22.081C65.562,-21.413,66.323,-20.686,67.013,-20.504C72.688,-19.01,78.375,-17.55,84.101,-16.266C86.856,-15.648,89.186,-14.672,90.418,-11.95C90.413,-3.828,90.408,4.295,90.403,12.418C88.985,14.445,87.154,15.716,84.656,16.271C78.761,17.58,72.919,19.125,67.039,20.505C65.993,20.75,65.688,21.11,65.308,22.095C64.213,24.933,62.926,27.655,61.642,30.411C61.152,31.462,61.379,32.283,61.96,33.228C64.722,37.727,68.171,42.386,70.875,46.921C72.876,50.275,72.626,52.345,69.881,55.098C65.439,59.554,60.987,64.34,56.532,68.783C53.682,71.626,51.564,71.866,48.048,69.758C43.621,67.103,38.222,64.153,33.836,61.431C32.849,60.818,32.149,60.868,31.129,61.34C28.21,62.692,25.229,63.918,22.233,65.091C21.206,65.493,20.663,66.013,20.4,67.131C19.006,73.068,17.45,78.967,16.085,84.91C15.477,87.557,14.211,89.49,11.599,90.418Z" /></g></g></g></g></g></g><g transform="matrix(1.03,0,0,1.03,454.5,533)" id="Null 2"><g transform="matrix(3.81,0,0,3.81,-3684.6,-1358.775)" opacity="0.5" id="Rectangle"><g id="Group 1" transform="matrix(1,0,0,1,958.5,300.5)"><path fill="#ad39ff" fill-opacity="1" d="M75.385,76.5L-75.385,76.5C-90.36,76.5,-102.5,64.36,-102.5,49.385L-102.5,-49.385C-102.5,-64.36,-90.36,-76.5,-75.385,-76.5L75.385,-76.5C90.36,-76.5,102.5,-64.36,102.5,-49.385L102.5,49.385C102.5,64.36,90.36,76.5,75.385,76.5Z" /></g></g></g><g transform="matrix(1.03,0,0,1.03,454.5,533)" id="Null 2"><g transform="matrix(3.81,0,0,3.81,-3684.6,-1358.775)" id="Code"><g id="Group 2" transform="matrix(1,0,0,1,904.905,279.75)"><path fill="#010101" fill-opacity="1" d="M-11.071,31.085L-20.263,21.892L1.879,-0.249L-19.763,-21.892L-10.571,-31.085L20.263,-0.249L-11.071,31.085Z" /></g><g opacity="1"><animate repeatCount="indefinite" attributeName="opacity" dur="1.7684351221542398s" begin="0.5005004801146984s" calcMode="spline" values="1; 0; 1; 0; 1" keyTimes="0; 0.25; 0.5; 0.75; 1" keySplines="0 0 1 1; 0 0 1 1; 0 0 1 1; 0 0 1 1" fill="freeze" /><g id="Group 1" transform="translate(956.75,300.5)"><path fill="#010101" fill-opacity="1" d="M24.25,6.5L-24.25,6.5L-24.25,-6.5L24.25,-6.5L24.25,6.5Z" /></g></g></g></g><g transform="matrix(1.03,0,0,1.03,454.5,533)" opacity="0" id="Null 2" /></svg>